<?xml version="1.0" encoding="utf-8"?>
<!-- Generator: Adobe Illustrator 24.3.0, SVG Export Plug-In . SVG Version: 6.00 Build 0)  -->
<svg version="1.1" id="Camada_1" xmlns="http://www.w3.org/2000/svg" xmlns:xlink="http://www.w3.org/1999/xlink" x="0px" y="0px"
	 viewBox="0 0 89.9 89.9" style="enable-background:new 0 0 89.9 89.9;" xml:space="preserve">
<style type="text/css">
	.st0{fill:#007AFF;}
</style>
<g id="Regular-M" transform="matrix(1 0 0 1 1392.45 1126)">
	<path class="st0" d="M-1334.1-1085.1h22.2c6.2,0,9.3-3.1,9.3-9.6v-21.8c0-6.4-3.1-9.5-9.3-9.5h-22.2c-6.3,0-9.4,3.1-9.4,9.5v21.8
		C-1343.5-1088.2-1340.4-1085.1-1334.1-1085.1z M-1383.1-1085.1h22.3c6.2,0,9.3-3.1,9.3-9.6v-21.8c0-6.4-3.1-9.5-9.3-9.5h-22.3
		c-6.2,0-9.3,3.1-9.3,9.5v21.8C-1392.4-1088.2-1389.3-1085.1-1383.1-1085.1z M-1383-1092c-1.7,0-2.5-0.9-2.5-2.7v-21.8
		c0-1.8,0.8-2.6,2.5-2.6h22c1.7,0,2.6,0.9,2.6,2.6v21.8c0,1.8-0.9,2.7-2.6,2.7H-1383z M-1334-1092c-1.8,0-2.6-0.9-2.6-2.7v-21.8
		c0-1.8,0.8-2.6,2.6-2.6h22c1.7,0,2.5,0.9,2.5,2.6v21.8c0,1.8-0.8,2.7-2.5,2.7H-1334z M-1376.2-1100.4h8.3c0.7,0,1-0.3,1-1.1v-8.1
		c0-0.8-0.3-1.1-1-1.1h-8.3c-0.7,0-1,0.3-1,1.1v8.1C-1377.2-1100.7-1376.9-1100.4-1376.2-1100.4z M-1326.9-1100.4h8.3
		c0.7,0,1-0.3,1-1.1v-8.1c0-0.8-0.3-1.1-1-1.1h-8.3c-0.7,0-0.9,0.3-0.9,1.1v8.1C-1327.9-1100.7-1327.6-1100.4-1326.9-1100.4z
		 M-1383.1-1036.1h22.3c6.2,0,9.3-3.1,9.3-9.5v-21.9c0-6.4-3.1-9.5-9.3-9.5h-22.3c-6.2,0-9.3,3.1-9.3,9.5v21.9
		C-1392.4-1039.2-1389.3-1036.1-1383.1-1036.1z M-1340.2-1064.4h8.3c0.7,0,1-0.3,1-1.1v-8.1c0-0.8-0.3-1.1-1-1.1h-8.3
		c-0.7,0-1,0.3-1,1.1v8.1C-1341.1-1064.7-1340.9-1064.4-1340.2-1064.4z M-1314.2-1064.4h8.3c0.7,0,1-0.3,1-1.1v-8.1
		c0-0.8-0.3-1.1-1-1.1h-8.3c-0.7,0-1,0.3-1,1.1v8.1C-1315.2-1064.7-1315-1064.4-1314.2-1064.4z M-1383-1043c-1.7,0-2.5-0.9-2.5-2.6
		v-21.8c0-1.8,0.8-2.7,2.5-2.7h22c1.7,0,2.6,0.9,2.6,2.7v21.8c0,1.8-0.9,2.6-2.6,2.6H-1383z M-1376.2-1051.4h8.3c0.7,0,1-0.3,1-1.2
		v-8.1c0-0.8-0.3-1.1-1-1.1h-8.3c-0.7,0-1,0.3-1,1.1v8.1C-1377.2-1051.7-1376.9-1051.4-1376.2-1051.4z M-1327.1-1051.4h8.3
		c0.7,0,1-0.3,1-1.2v-8.1c0-0.8-0.3-1.1-1-1.1h-8.3c-0.7,0-1,0.3-1,1.1v8.1C-1328-1051.7-1327.8-1051.4-1327.1-1051.4z
		 M-1340.2-1038.5h8.3c0.7,0,1-0.3,1-1.1v-8.1c0-0.8-0.3-1.1-1-1.1h-8.3c-0.7,0-1,0.3-1,1.1v8.1
		C-1341.1-1038.7-1340.9-1038.5-1340.2-1038.5z M-1314.2-1038.5h8.3c0.7,0,1-0.3,1-1.1v-8.1c0-0.8-0.3-1.1-1-1.1h-8.3
		c-0.7,0-1,0.3-1,1.1v8.1C-1315.2-1038.7-1315-1038.5-1314.2-1038.5z"/>
</g>
</svg>
