<?xml version="1.0" encoding="utf-8"?>
<!-- Generator: Adobe Illustrator 24.3.0, SVG Export Plug-In . SVG Version: 6.00 Build 0)  -->
<svg version="1.1" id="Camada_1" xmlns="http://www.w3.org/2000/svg" xmlns:xlink="http://www.w3.org/1999/xlink" x="0px" y="0px"
	 viewBox="0 0 74 92.2" style="enable-background:new 0 0 74 92.2;" xml:space="preserve">
<style type="text/css">
	.st0{fill:#34C759;}
</style>
<g id="Regular-M" transform="matrix(1 0 0 1 1400.38 1126)">
	<path class="st0" d="M-1363.4-1126c-2.5,0-4.3,1.8-4.3,4.3v64.3l0.4,10.4l-14.6-16.1l-11.1-10.9c-0.7-0.8-1.9-1.2-3.1-1.2
		c-2.4,0-4.2,1.9-4.2,4.2c0,1.2,0.4,2.2,1.4,3.2l32.4,32.5c0.9,1,2.1,1.5,3.3,1.5s2.3-0.5,3.3-1.5l32.4-32.5c0.9-1,1.3-2,1.3-3.2
		c0-2.4-1.8-4.2-4.2-4.2c-1.2,0-2.3,0.4-3.1,1.2l-11.1,10.9l-14.6,16l0.3-10.4v-64.3C-1359-1124.2-1360.8-1126-1363.4-1126z"/>
</g>
</svg>
