<?xml version="1.0" encoding="utf-8"?>
<!-- Generator: Adobe Illustrator 24.3.0, SVG Export Plug-In . SVG Version: 6.00 Build 0)  -->
<svg version="1.1" id="Camada_1" xmlns="http://www.w3.org/2000/svg" xmlns:xlink="http://www.w3.org/1999/xlink" x="0px" y="0px"
	 viewBox="0 0 77.4 77.4" style="enable-background:new 0 0 77.4 77.4;" xml:space="preserve">
<style type="text/css">
	.st0{fill:#FF3B30;}
</style>
<g id="Regular-M" transform="matrix(1 0 0 1 1398.67 1126)">
	<path class="st0" d="M-1397.4-1056c-1.7,1.7-1.7,4.5,0,6.2s4.5,1.7,6.2,0l31.3-31.3l31.3,31.3c1.7,1.7,4.5,1.7,6.2,0s1.7-4.5,0-6.2
		l-31.3-31.3l31.3-31.3c1.7-1.7,1.7-4.5,0-6.2s-4.5-1.7-6.2,0l-31.3,31.3l-31.3-31.3c-1.7-1.7-4.5-1.8-6.2,0c-1.7,1.7-1.7,4.5,0,6.2
		l31.3,31.3L-1397.4-1056z"/>
</g>
</svg>
