<?xml version="1.0" encoding="utf-8"?>
<!-- Generator: Adobe Illustrator 24.3.0, SVG Export Plug-In . SVG Version: 6.00 Build 0)  -->
<svg version="1.1" id="Camada_1" xmlns="http://www.w3.org/2000/svg" xmlns:xlink="http://www.w3.org/1999/xlink" x="0px" y="0px"
	 viewBox="0 0 90.7 74" style="enable-background:new 0 0 90.7 74;" xml:space="preserve">
<style type="text/css">
	.st0{fill:#007AFF;}
</style>
<g id="Regular-M" transform="matrix(1 0 0 1 1392.06 1126)">
	<path class="st0" d="M-1392.1-1089c0,1.2,0.5,2.3,1.5,3.3l32.4,32.4c1,0.9,2,1.4,3.2,1.4c2.4,0,4.3-1.8,4.3-4.2
		c0-1.2-0.4-2.3-1.2-3.1l-10.9-11.1l-16.5-15l11.8,0.7h61.8c2.5,0,4.3-1.8,4.3-4.3s-1.8-4.3-4.3-4.3h-61.8l-11.8,0.7l16.4-15
		l10.9-11.1c0.8-0.8,1.2-1.9,1.2-3.1c0-2.4-1.9-4.2-4.3-4.2c-1.2,0-2.2,0.4-3.3,1.5l-32.3,32.3
		C-1391.5-1091.3-1392.1-1090.2-1392.1-1089z"/>
</g>
</svg>
