<?xml version="1.0" encoding="utf-8"?>
<!-- Generator: Adobe Illustrator 24.3.0, SVG Export Plug-In . SVG Version: 6.00 Build 0)  -->
<svg version="1.1" id="Camada_1" xmlns="http://www.w3.org/2000/svg" xmlns:xlink="http://www.w3.org/1999/xlink" x="0px" y="0px"
	 viewBox="0 0 99.6 99.6" style="enable-background:new 0 0 99.6 99.6;" xml:space="preserve">
<style type="text/css">
	.st0{fill:#34C759;}
</style>
<g id="Regular-M" transform="matrix(1 0 0 1 1391.3 1126)">
	<path class="st0" d="M-1341.5-1026.4c27.2,0,49.8-22.6,49.8-49.8c0-27.2-22.6-49.8-49.9-49.8c-27.2,0-49.8,22.6-49.8,49.8
		C-1391.3-1048.9-1368.7-1026.4-1341.5-1026.4z M-1341.5-1034.7c-23,0-41.5-18.5-41.5-41.5s18.4-41.5,41.4-41.5s41.5,18.5,41.6,41.5
		C-1299.9-1053.1-1318.4-1034.7-1341.5-1034.7z M-1341.5-1051c1.1,0,2-0.5,2.9-1.4l16.6-16.5c0.6-0.6,1-1.5,1-2.5
		c0-2-1.6-3.5-3.6-3.5c-1,0-2,0.4-2.6,1.1l-6,6.1l-5,6l0.4-10.4v-25.5c0-2.1-1.5-3.7-3.7-3.7c-2.1,0-3.7,1.6-3.7,3.7v25.5l0.4,10.3
		l-4.9-5.9l-6.1-6.1c-0.6-0.6-1.5-1.1-2.6-1.1c-2,0-3.5,1.5-3.5,3.5c0,1,0.3,1.9,1,2.5l16.6,16.5
		C-1343.4-1051.4-1342.5-1051-1341.5-1051z"/>
</g>
</svg>
